<?xml version="1.0" standalone="no"?><!DOCTYPE svg PUBLIC "-//W3C//DTD SVG 1.1//EN" "http://www.w3.org/Graphics/SVG/1.1/DTD/svg11.dtd"><svg t="1539663255244" class="icon" style="" viewBox="0 0 1024 1024" version="1.1" xmlns="http://www.w3.org/2000/svg" p-id="1972" xmlns:xlink="http://www.w3.org/1999/xlink" width="200" height="200"><defs><style type="text/css"></style></defs><path d="M512 1024c-212.032 0-384-85.952-384-192v-108.032C128 830.08 299.968 896 512 896s384-65.92 384-172.032V832c0 106.048-171.968 192-384 192z m0-192c-212.032 0-384-85.952-384-192v-108.032C128 638.08 299.968 704 512 704s384-65.92 384-172.032V640c0 106.048-171.968 192-384 192z m0-192c-212.032 0-384-85.952-384-192v-108.032C128 446.08 299.968 512 512 512s384-65.92 384-172.032V448c0 106.048-171.968 192-384 192z m0-192c-212.032 0-384-85.952-384-192V192c0-106.048 171.968-192 384-192s384 85.952 384 192v64c0 106.048-171.968 192-384 192z" p-id="1973"></path></svg>